<svg width="700" height="311" viewBox="0 0 700 311" fill="none" xmlns="http://www.w3.org/2000/svg">
<rect width="700" height="311" fill="white"/>
<g clip-path="url(#clip0_3215_27230)">
<ellipse cx="170.5" cy="211" rx="31.5" ry="7" fill="#87C6EA"/>
<ellipse cx="170.5" cy="211" rx="31.5" ry="7" fill="#87C6EA"/>
<ellipse cx="533.5" cy="211" rx="31.5" ry="7" fill="#87C6EA"/>
<ellipse cx="533.5" cy="211" rx="31.5" ry="7" fill="#87C6EA"/>
<ellipse cx="344.5" cy="204" rx="97.5" ry="22" fill="#87C6EA"/>
<ellipse cx="344.5" cy="204" rx="97.5" ry="22" fill="#87C6EA"/>
<path d="M262.55 80.1785L261.083 86.0449L264.016 86.7773L284.382 91.8701L294.259 106.685L315.235 169.613L302.858 194.369H308.846C308.125 195.832 307.75 197.441 307.75 199.072C307.75 204.974 312.599 209.822 318.5 209.822C324.401 209.822 329.25 204.974 329.25 199.072C329.25 197.389 328.854 195.793 328.153 194.369H362.596C361.875 195.832 361.5 197.441 361.5 199.072C361.5 204.974 366.349 209.822 372.25 209.822C378.151 209.822 383 204.974 383 199.072C383 197.389 382.604 195.793 381.903 194.369H386.023V188.322H312.642L320.368 172.869H385.179L408.694 102.322H298.618L288.118 86.5703L265.483 80.9122L262.55 80.1785V80.1785ZM301.195 108.368H331.601V123.821H306.346L301.195 108.368ZM337.648 108.368H363.851V123.821H337.648V108.368ZM369.898 108.368H400.305L395.153 123.821H369.898V108.368ZM308.361 129.868H331.601V145.321H313.513L308.361 129.868ZM337.648 129.868H363.851V145.321H337.648V129.868ZM369.898 129.868H393.139L387.987 145.321H369.898V129.868ZM315.528 151.368H331.601V166.821H320.679L315.528 151.368ZM337.648 151.368H363.851V166.821H337.648V151.368ZM369.898 151.368H385.972L380.821 166.821H369.898V151.368ZM318.5 194.368C321.134 194.368 323.203 196.438 323.203 199.071C323.203 201.705 321.134 203.775 318.5 203.775C315.866 203.775 313.797 201.705 313.797 199.071C313.797 196.438 315.866 194.368 318.5 194.368ZM372.25 194.368C374.884 194.368 376.953 196.438 376.953 199.071C376.953 201.705 374.884 203.775 372.25 203.775C369.616 203.775 367.547 201.705 367.547 199.071C367.547 196.438 369.616 194.368 372.25 194.368Z" fill="black"/>
<path d="M113.864 188.984V180.024L159.688 121.4H173.512L128.072 180.024L121.544 177.976H193.096V188.984H113.864ZM163.656 211V188.984L164.04 177.976V158.52H176.072V211H163.656Z" fill="black"/>
<path d="M486.44 178.868L488.719 170.203L547.945 125.159L561.314 128.675L502.46 173.816L496.667 170.175L565.867 188.371L563.068 199.017L486.44 178.868ZM528.997 212.823L534.595 191.53L537.766 180.982L542.714 162.166L554.35 165.225L541.005 215.98L528.997 212.823Z" fill="black"/>
<ellipse cx="462.316" cy="99.3157" rx="42.0862" ry="22" transform="rotate(-45 462.316 99.3157)" fill="#87C6EA"/>
<ellipse cx="462.316" cy="99.3157" rx="42.0862" ry="22" transform="rotate(-45 462.316 99.3157)" fill="#F4F4F4"/>
<path d="M451.979 117.846C451.376 118.45 450.708 118.853 449.977 119.057C449.245 119.261 448.514 119.268 447.782 119.08C447.043 118.883 446.379 118.491 445.791 117.903C445.195 117.307 444.803 116.643 444.614 115.912C444.426 115.18 444.437 114.452 444.648 113.728C444.852 112.997 445.255 112.329 445.859 111.726C446.454 111.13 447.118 110.73 447.85 110.526C448.581 110.308 449.309 110.296 450.033 110.492C450.757 110.673 451.421 111.066 452.025 111.669C452.62 112.265 453.013 112.929 453.201 113.66C453.397 114.384 453.39 115.116 453.179 115.855C452.975 116.587 452.575 117.25 451.979 117.846ZM451.029 116.896C451.414 116.511 451.67 116.081 451.798 115.606C451.934 115.123 451.93 114.637 451.787 114.147C451.636 113.649 451.35 113.189 450.927 112.766C450.497 112.337 450.041 112.054 449.558 111.918C449.068 111.775 448.581 111.771 448.099 111.907C447.624 112.035 447.194 112.291 446.809 112.676C446.424 113.061 446.168 113.491 446.04 113.966C445.911 114.441 445.915 114.927 446.051 115.425C446.179 115.915 446.458 116.376 446.888 116.805C447.311 117.228 447.774 117.511 448.28 117.654C448.778 117.79 449.264 117.794 449.739 117.665C450.214 117.537 450.644 117.281 451.029 116.896ZM459.161 110.665C458.558 111.268 457.89 111.672 457.158 111.875C456.427 112.079 455.695 112.087 454.964 111.898C454.224 111.702 453.561 111.31 452.972 110.721C452.376 110.125 451.984 109.462 451.796 108.73C451.607 107.999 451.618 107.271 451.83 106.547C452.033 105.815 452.437 105.147 453.04 104.544C453.636 103.948 454.3 103.548 455.031 103.345C455.763 103.126 456.491 103.115 457.215 103.311C457.939 103.492 458.603 103.884 459.206 104.487C459.802 105.083 460.194 105.747 460.383 106.479C460.579 107.203 460.571 107.934 460.36 108.674C460.157 109.405 459.757 110.069 459.161 110.665ZM458.211 109.714C458.595 109.33 458.852 108.9 458.98 108.425C459.116 107.942 459.112 107.455 458.969 106.965C458.818 106.467 458.531 106.007 458.109 105.585C457.679 105.155 457.222 104.872 456.74 104.736C456.25 104.593 455.763 104.589 455.28 104.725C454.805 104.853 454.375 105.11 453.991 105.494C453.606 105.879 453.349 106.309 453.221 106.784C453.093 107.259 453.097 107.746 453.233 108.244C453.361 108.734 453.64 109.194 454.07 109.624C454.492 110.046 454.956 110.329 455.461 110.472C455.959 110.608 456.446 110.612 456.921 110.484C457.396 110.356 457.826 110.099 458.211 109.714ZM466.953 102.872C466.456 103.37 465.886 103.713 465.245 103.902C464.604 104.075 463.933 104.06 463.231 103.857C462.537 103.645 461.851 103.2 461.172 102.522C460.493 101.843 460.044 101.16 459.826 100.474C459.615 99.7799 459.599 99.1161 459.781 98.4826C459.969 97.8415 460.32 97.2645 460.833 96.7516C461.421 96.1633 462.07 95.771 462.779 95.5749C463.488 95.3788 464.204 95.3788 464.928 95.5749C465.645 95.7635 466.309 96.1633 466.919 96.7742C467.53 97.3851 467.934 98.0526 468.13 98.7767C468.326 99.5008 468.326 100.217 468.13 100.926C467.934 101.635 467.542 102.284 466.953 102.872ZM465.901 108.178L457.71 99.9873L458.751 98.9464L460.369 100.564L461.693 102.024L463.197 103.302L466.987 107.092L465.901 108.178ZM465.913 102.012C466.297 101.628 466.554 101.198 466.682 100.723C466.818 100.24 466.814 99.7535 466.671 99.2632C466.527 98.7579 466.244 98.294 465.822 97.8716C465.392 97.4417 464.932 97.1626 464.442 97.0344C463.951 96.8911 463.465 96.8873 462.982 97.0231C462.507 97.1513 462.077 97.4078 461.693 97.7924C461.315 98.1696 461.059 98.5995 460.923 99.0822C460.795 99.5574 460.799 100.044 460.935 100.542C461.07 101.024 461.353 101.481 461.783 101.911C462.205 102.333 462.666 102.62 463.163 102.77C463.661 102.906 464.148 102.91 464.623 102.782C465.105 102.646 465.535 102.39 465.913 102.012ZM473.206 96.6199C472.708 97.1177 472.165 97.525 471.577 97.8418C470.996 98.151 470.479 98.3358 470.027 98.3961L469.619 97.0837C470.049 97.0008 470.513 96.8311 471.011 96.5746C471.509 96.3182 471.954 95.9938 472.346 95.6016C472.851 95.0963 473.142 94.6626 473.217 94.3006C473.3 93.931 473.213 93.618 472.957 93.3615C472.768 93.173 472.553 93.0938 472.312 93.1239C472.071 93.1541 471.81 93.2559 471.531 93.4294C471.26 93.5953 470.969 93.7952 470.66 94.029C470.343 94.2553 470.019 94.474 469.687 94.6852C469.348 94.8889 469.008 95.0473 468.669 95.1604C468.322 95.266 467.979 95.2849 467.639 95.217C467.293 95.1415 466.946 94.9304 466.599 94.5834C466.237 94.2214 466.022 93.8028 465.954 93.3276C465.886 92.8524 465.965 92.3584 466.191 91.8455C466.418 91.3175 466.787 90.7971 467.3 90.2842C467.692 89.892 468.137 89.545 468.635 89.2433C469.133 88.9265 469.597 88.7267 470.027 88.6437L470.423 89.9674C469.97 90.0579 469.563 90.2163 469.201 90.4426C468.839 90.6689 468.511 90.9291 468.216 91.2232C467.741 91.6984 467.466 92.1321 467.391 92.5243C467.308 92.909 467.387 93.222 467.628 93.4633C467.832 93.667 468.058 93.7575 468.307 93.7349C468.556 93.6972 468.82 93.5991 469.099 93.4407C469.386 93.2748 469.687 93.0787 470.004 92.8524C470.313 92.6186 470.638 92.3999 470.977 92.1962C471.309 91.985 471.641 91.8266 471.973 91.721C472.312 91.6079 472.651 91.5853 472.991 91.6532C473.338 91.7135 473.681 91.9134 474.02 92.2528C474.382 92.6148 474.59 93.0334 474.643 93.5086C474.695 93.9838 474.605 94.4891 474.371 95.0246C474.13 95.5526 473.741 96.0844 473.206 96.6199ZM477.414 92.4114C477.203 92.6226 476.95 92.732 476.656 92.7395C476.355 92.7395 476.091 92.6264 475.864 92.4001C475.638 92.1738 475.529 91.9136 475.536 91.6195C475.544 91.3253 475.653 91.0726 475.864 90.8615C476.068 90.6578 476.313 90.556 476.6 90.556C476.894 90.5484 477.154 90.6578 477.38 90.8841C477.607 91.1104 477.72 91.3743 477.72 91.676C477.72 91.9627 477.618 92.2078 477.414 92.4114ZM479.978 89.8482C479.766 90.0594 479.514 90.1687 479.219 90.1763C478.918 90.1763 478.654 90.0631 478.428 89.8369C478.201 89.6106 478.092 89.3504 478.099 89.0562C478.107 88.7621 478.216 88.5094 478.428 88.2982C478.631 88.0945 478.876 87.9927 479.163 87.9927C479.457 87.9852 479.717 88.0945 479.944 88.3208C480.17 88.5471 480.283 88.8111 480.283 89.1128C480.283 89.3994 480.181 89.6445 479.978 89.8482ZM482.541 87.2849C482.33 87.4961 482.077 87.6055 481.783 87.613C481.481 87.613 481.217 87.4999 480.991 87.2736C480.765 87.0473 480.655 86.7871 480.663 86.493C480.67 86.1988 480.78 85.9461 480.991 85.7349C481.194 85.5313 481.44 85.4295 481.726 85.4295C482.02 85.4219 482.281 85.5313 482.507 85.7576C482.733 85.9838 482.846 86.2478 482.846 86.5495C482.846 86.8361 482.744 87.0813 482.541 87.2849Z" fill="#717171"/>
</g>
<defs>
<clipPath id="clip0_3215_27230">
<rect width="481.844" height="192.742" fill="white" transform="translate(109 59)"/>
</clipPath>
</defs>
</svg>
